<mxfile host="drawio-plugin" modified="2023-05-22T13:36:15.310Z" agent="5.0 (Windows NT 6.2; Win64; x64) AppleWebKit/537.36 (KHTML, like Gecko) Chrome/104.0.5112.102 Safari/537.36" etag="Xscf6rpB-svLFC4VbAPZ" version="20.5.3" type="embed"><diagram id="R2lEEEUBdFMjLlhIrx00" name="Page-1"><mxGraphModel dx="1393" dy="2019" grid="1" gridSize="10" guides="1" tooltips="1" connect="1" arrows="1" fold="1" page="1" pageScale="1" pageWidth="850" pageHeight="1100" math="0" shadow="0" extFonts="Permanent Marker^https://fonts.googleapis.com/css?family=Permanent+Marker"><root><mxCell id="0"/><mxCell id="1" parent="0"/><mxCell id="3N9pXRzrCpbUJ6rccx5e-1" value="Organization" style="text;strokeColor=none;fillColor=none;html=1;fontSize=18;fontStyle=1;verticalAlign=middle;align=center;" parent="1" vertex="1"><mxGeometry x="130" y="160" width="90" height="40" as="geometry"/></mxCell><mxCell id="3N9pXRzrCpbUJ6rccx5e-2" value="Book" style="text;strokeColor=none;fillColor=none;html=1;fontSize=18;fontStyle=1;verticalAlign=middle;align=center;" parent="1" vertex="1"><mxGeometry x="100" y="280" width="80" height="40" as="geometry"/></mxCell><mxCell id="3N9pXRzrCpbUJ6rccx5e-7" value="Person" style="text;strokeColor=none;fillColor=none;html=1;fontSize=18;fontStyle=1;verticalAlign=middle;align=center;" parent="1" vertex="1"><mxGeometry x="100" y="1120" width="100" height="40" as="geometry"/></mxCell><mxCell id="3N9pXRzrCpbUJ6rccx5e-9" value="Reservation" style="text;strokeColor=none;fillColor=none;html=1;fontSize=18;fontStyle=1;verticalAlign=middle;align=center;" parent="1" vertex="1"><mxGeometry x="120" y="520" width="100" height="40" as="geometry"/></mxCell><mxCell id="3N9pXRzrCpbUJ6rccx5e-10" value="Loan" style="text;strokeColor=none;fillColor=none;html=1;fontSize=18;fontStyle=1;verticalAlign=middle;align=center;" parent="1" vertex="1"><mxGeometry x="90" y="880" width="100" height="40" as="geometry"/></mxCell><mxCell id="3N9pXRzrCpbUJ6rccx5e-11" value="Fine" style="text;strokeColor=none;fillColor=none;html=1;fontSize=18;fontStyle=1;verticalAlign=middle;align=center;" parent="1" vertex="1"><mxGeometry x="90" y="1000" width="100" height="40" as="geometry"/></mxCell><mxCell id="3N9pXRzrCpbUJ6rccx5e-167" value="Name" style="whiteSpace=wrap;html=1;align=center;strokeColor=default;fontSize=18;fillColor=none;" parent="1" vertex="1"><mxGeometry x="120" y="200" width="100" height="40" as="geometry"/></mxCell><mxCell id="3N9pXRzrCpbUJ6rccx5e-168" value="Title" style="whiteSpace=wrap;html=1;align=center;strokeColor=default;fontSize=18;fillColor=none;" parent="1" vertex="1"><mxGeometry x="120" y="320" width="100" height="40" as="geometry"/></mxCell><mxCell id="3N9pXRzrCpbUJ6rccx5e-175" value="Reservation_ID" style="whiteSpace=wrap;html=1;align=center;strokeColor=default;fontSize=18;fillColor=none;fontStyle=5" parent="1" vertex="1"><mxGeometry x="120" y="560" width="140" height="40" as="geometry"/></mxCell><mxCell id="3N9pXRzrCpbUJ6rccx5e-176" value="Loan_ID" style="whiteSpace=wrap;html=1;align=center;strokeColor=default;fontSize=18;fillColor=none;fontStyle=5" parent="1" vertex="1"><mxGeometry x="120" y="920" width="100" height="40" as="geometry"/></mxCell><mxCell id="3N9pXRzrCpbUJ6rccx5e-177" value="Fine_ID" style="whiteSpace=wrap;html=1;align=center;strokeColor=default;fontSize=18;fillColor=none;fontStyle=5" parent="1" vertex="1"><mxGeometry x="120" y="1040" width="100" height="40" as="geometry"/></mxCell><mxCell id="3N9pXRzrCpbUJ6rccx5e-180" value="Phone" style="whiteSpace=wrap;html=1;align=center;strokeColor=default;fontSize=18;fillColor=none;" parent="1" vertex="1"><mxGeometry x="340" y="1160" width="120" height="40" as="geometry"/></mxCell><mxCell id="3N9pXRzrCpbUJ6rccx5e-181" value="&lt;b&gt;Person_ID&lt;/b&gt;" style="whiteSpace=wrap;html=1;align=center;strokeColor=default;fontSize=18;fillColor=none;fontStyle=4" parent="1" vertex="1"><mxGeometry x="460" y="1160" width="120" height="40" as="geometry"/></mxCell><mxCell id="3N9pXRzrCpbUJ6rccx5e-182" value="EMail" style="whiteSpace=wrap;html=1;align=center;strokeColor=default;fontSize=18;fillColor=none;" parent="1" vertex="1"><mxGeometry x="580" y="1160" width="120" height="40" as="geometry"/></mxCell><mxCell id="3N9pXRzrCpbUJ6rccx5e-191" value="&lt;b&gt;Organization_ID&lt;/b&gt;" style="whiteSpace=wrap;html=1;align=center;strokeColor=default;fontSize=18;fillColor=none;" parent="1" vertex="1"><mxGeometry x="580" y="200" width="170" height="40" as="geometry"/></mxCell><mxCell id="3N9pXRzrCpbUJ6rccx5e-192" value="Publisher_ID" style="whiteSpace=wrap;html=1;align=center;strokeColor=default;fontSize=18;fillColor=none;fontStyle=5" parent="1" vertex="1"><mxGeometry x="750" y="200" width="120" height="40" as="geometry"/></mxCell><mxCell id="3N9pXRzrCpbUJ6rccx5e-193" value="Branch_ID" style="whiteSpace=wrap;html=1;align=center;strokeColor=default;fontSize=18;fillColor=none;fontStyle=5" parent="1" vertex="1"><mxGeometry x="870" y="200" width="130" height="40" as="geometry"/></mxCell><mxCell id="3N9pXRzrCpbUJ6rccx5e-194" value="Book_ID" style="whiteSpace=wrap;html=1;align=center;strokeColor=default;fontSize=18;fillColor=none;fontStyle=1" parent="1" vertex="1"><mxGeometry x="220" y="320" width="100" height="40" as="geometry"/></mxCell><mxCell id="3N9pXRzrCpbUJ6rccx5e-195" value="ISBN" style="whiteSpace=wrap;html=1;align=center;strokeColor=default;fontSize=18;fillColor=none;" parent="1" vertex="1"><mxGeometry x="320" y="320" width="100" height="40" as="geometry"/></mxCell><mxCell id="3N9pXRzrCpbUJ6rccx5e-208" value="&lt;b&gt;Organization_ID&lt;/b&gt;" style="whiteSpace=wrap;html=1;align=center;strokeColor=default;fontSize=18;fillColor=none;fontStyle=4" parent="1" vertex="1"><mxGeometry x="580" y="200" width="170" height="40" as="geometry"/></mxCell><mxCell id="3N9pXRzrCpbUJ6rccx5e-209" value="Book_ID" style="whiteSpace=wrap;html=1;align=center;strokeColor=default;fontSize=18;fillColor=none;fontStyle=5" parent="1" vertex="1"><mxGeometry x="220" y="320" width="100" height="40" as="geometry"/></mxCell><mxCell id="3N9pXRzrCpbUJ6rccx5e-213" style="edgeStyle=orthogonalEdgeStyle;rounded=0;orthogonalLoop=1;jettySize=auto;html=1;entryX=0.5;entryY=1;entryDx=0;entryDy=0;fontSize=18;" parent="1" source="3N9pXRzrCpbUJ6rccx5e-211" target="3N9pXRzrCpbUJ6rccx5e-209" edge="1"><mxGeometry relative="1" as="geometry"><Array as="points"><mxPoint x="400" y="580"/><mxPoint x="400" y="400"/><mxPoint x="270" y="400"/></Array></mxGeometry></mxCell><mxCell id="3N9pXRzrCpbUJ6rccx5e-211" value="Book_ID" style="whiteSpace=wrap;html=1;align=center;strokeColor=default;fontSize=18;fillColor=none;fontStyle=5" parent="1" vertex="1"><mxGeometry x="260" y="560" width="100" height="40" as="geometry"/></mxCell><mxCell id="13" style="edgeStyle=orthogonalEdgeStyle;rounded=0;orthogonalLoop=1;jettySize=auto;html=1;exitX=0.5;exitY=0;exitDx=0;exitDy=0;entryX=0.5;entryY=1;entryDx=0;entryDy=0;" edge="1" parent="1" source="3N9pXRzrCpbUJ6rccx5e-215" target="3N9pXRzrCpbUJ6rccx5e-192"><mxGeometry relative="1" as="geometry"/></mxCell><mxCell id="3N9pXRzrCpbUJ6rccx5e-215" value="&lt;b&gt;Publisher_ID&lt;/b&gt;" style="whiteSpace=wrap;html=1;align=center;strokeColor=default;fontSize=18;fillColor=none;fontStyle=4" parent="1" vertex="1"><mxGeometry x="420" y="320" width="150" height="40" as="geometry"/></mxCell><mxCell id="3N9pXRzrCpbUJ6rccx5e-217" value="Version" style="whiteSpace=wrap;html=1;align=center;strokeColor=default;fontSize=18;fillColor=none;" parent="1" vertex="1"><mxGeometry x="570" y="320" width="110" height="40" as="geometry"/></mxCell><mxCell id="3N9pXRzrCpbUJ6rccx5e-218" value="Publish_year" style="whiteSpace=wrap;html=1;align=center;strokeColor=default;fontSize=18;fillColor=none;" parent="1" vertex="1"><mxGeometry x="680" y="320" width="130" height="40" as="geometry"/></mxCell><mxCell id="3N9pXRzrCpbUJ6rccx5e-227" value="Return_date" style="whiteSpace=wrap;html=1;align=center;strokeColor=default;fontSize=18;fillColor=none;" parent="1" vertex="1"><mxGeometry x="220" y="920" width="130" height="40" as="geometry"/></mxCell><mxCell id="3N9pXRzrCpbUJ6rccx5e-228" value="Amount" style="whiteSpace=wrap;html=1;align=center;strokeColor=default;fontSize=18;fillColor=none;" parent="1" vertex="1"><mxGeometry x="220" y="1040" width="100" height="40" as="geometry"/></mxCell><mxCell id="3N9pXRzrCpbUJ6rccx5e-229" value="Paid" style="whiteSpace=wrap;html=1;align=center;strokeColor=default;fontSize=18;fillColor=none;" parent="1" vertex="1"><mxGeometry x="320" y="1040" width="100" height="40" as="geometry"/></mxCell><mxCell id="3N9pXRzrCpbUJ6rccx5e-234" style="edgeStyle=orthogonalEdgeStyle;rounded=0;orthogonalLoop=1;jettySize=auto;html=1;entryX=0.5;entryY=1;entryDx=0;entryDy=0;fontSize=18;" parent="1" source="3N9pXRzrCpbUJ6rccx5e-230" target="3N9pXRzrCpbUJ6rccx5e-209" edge="1"><mxGeometry relative="1" as="geometry"><Array as="points"><mxPoint x="400" y="400"/><mxPoint x="270" y="400"/></Array></mxGeometry></mxCell><mxCell id="3N9pXRzrCpbUJ6rccx5e-230" value="Book_ID" style="whiteSpace=wrap;html=1;align=center;strokeColor=default;fontSize=18;fillColor=none;fontStyle=5" parent="1" vertex="1"><mxGeometry x="350" y="920" width="100" height="40" as="geometry"/></mxCell><mxCell id="3N9pXRzrCpbUJ6rccx5e-235" value="Loan_date" style="whiteSpace=wrap;html=1;align=center;strokeColor=default;fontSize=18;fillColor=none;" parent="1" vertex="1"><mxGeometry x="450" y="920" width="130" height="40" as="geometry"/></mxCell><mxCell id="3N9pXRzrCpbUJ6rccx5e-236" value="Due_date" style="whiteSpace=wrap;html=1;align=center;strokeColor=default;fontSize=18;fillColor=none;" parent="1" vertex="1"><mxGeometry x="580" y="920" width="130" height="40" as="geometry"/></mxCell><mxCell id="3N9pXRzrCpbUJ6rccx5e-238" style="edgeStyle=orthogonalEdgeStyle;rounded=0;orthogonalLoop=1;jettySize=auto;html=1;entryX=0.5;entryY=1;entryDx=0;entryDy=0;fontSize=18;" parent="1" source="3N9pXRzrCpbUJ6rccx5e-237" target="3N9pXRzrCpbUJ6rccx5e-176" edge="1"><mxGeometry relative="1" as="geometry"><Array as="points"><mxPoint x="470" y="1000"/><mxPoint x="170" y="1000"/></Array></mxGeometry></mxCell><mxCell id="3N9pXRzrCpbUJ6rccx5e-237" value="Loan_ID" style="whiteSpace=wrap;html=1;align=center;strokeColor=default;fontSize=18;fillColor=none;fontStyle=5" parent="1" vertex="1"><mxGeometry x="420" y="1040" width="100" height="40" as="geometry"/></mxCell><mxCell id="3N9pXRzrCpbUJ6rccx5e-246" value="Librarian" style="text;strokeColor=none;fillColor=none;html=1;fontSize=18;fontStyle=1;verticalAlign=middle;align=center;" parent="1" vertex="1"><mxGeometry x="110" y="1240" width="100" height="40" as="geometry"/></mxCell><mxCell id="3N9pXRzrCpbUJ6rccx5e-251" value="Borrower" style="text;strokeColor=none;fillColor=none;html=1;fontSize=18;fontStyle=1;verticalAlign=middle;align=center;" parent="1" vertex="1"><mxGeometry x="110" y="1360" width="100" height="40" as="geometry"/></mxCell><mxCell id="18" style="edgeStyle=orthogonalEdgeStyle;rounded=0;orthogonalLoop=1;jettySize=auto;html=1;exitX=0.5;exitY=1;exitDx=0;exitDy=0;entryX=0.5;entryY=1;entryDx=0;entryDy=0;endArrow=none;endFill=0;startArrow=classic;startFill=1;" edge="1" parent="1" source="3N9pXRzrCpbUJ6rccx5e-256" target="2"><mxGeometry relative="1" as="geometry"><Array as="points"><mxPoint x="180" y="1340"/><mxPoint x="30" y="1340"/><mxPoint x="30" y="150"/><mxPoint x="280" y="150"/></Array></mxGeometry></mxCell><mxCell id="3N9pXRzrCpbUJ6rccx5e-256" value="Librarian_ID" style="whiteSpace=wrap;html=1;align=center;strokeColor=default;fontSize=18;fillColor=none;fontStyle=5" parent="1" vertex="1"><mxGeometry x="120" y="1280" width="120" height="40" as="geometry"/></mxCell><mxCell id="3N9pXRzrCpbUJ6rccx5e-257" value="Borrower_ID" style="whiteSpace=wrap;html=1;align=center;strokeColor=default;fontSize=18;fillColor=none;fontStyle=5" parent="1" vertex="1"><mxGeometry x="220" y="1400" width="120" height="40" as="geometry"/></mxCell><mxCell id="3N9pXRzrCpbUJ6rccx5e-260" style="edgeStyle=orthogonalEdgeStyle;rounded=0;orthogonalLoop=1;jettySize=auto;html=1;entryX=0.5;entryY=1;entryDx=0;entryDy=0;fontSize=18;" parent="1" source="3N9pXRzrCpbUJ6rccx5e-258" target="3N9pXRzrCpbUJ6rccx5e-181" edge="1"><mxGeometry relative="1" as="geometry"><Array as="points"><mxPoint x="300" y="1240"/><mxPoint x="520" y="1240"/></Array></mxGeometry></mxCell><mxCell id="3N9pXRzrCpbUJ6rccx5e-258" value="&lt;b&gt;Person_ID&lt;/b&gt;" style="whiteSpace=wrap;html=1;align=center;strokeColor=default;fontSize=18;fillColor=none;fontStyle=4" parent="1" vertex="1"><mxGeometry x="240" y="1280" width="120" height="40" as="geometry"/></mxCell><mxCell id="3N9pXRzrCpbUJ6rccx5e-261" style="edgeStyle=orthogonalEdgeStyle;rounded=0;orthogonalLoop=1;jettySize=auto;html=1;exitX=0.5;exitY=0;exitDx=0;exitDy=0;entryX=0.5;entryY=1;entryDx=0;entryDy=0;fontSize=18;" parent="1" source="3N9pXRzrCpbUJ6rccx5e-259" target="3N9pXRzrCpbUJ6rccx5e-181" edge="1"><mxGeometry relative="1" as="geometry"><Array as="points"><mxPoint x="400" y="1360"/><mxPoint x="110" y="1360"/><mxPoint x="110" y="1240"/><mxPoint x="520" y="1240"/></Array></mxGeometry></mxCell><mxCell id="3N9pXRzrCpbUJ6rccx5e-259" value="&lt;b&gt;Person_ID&lt;/b&gt;" style="whiteSpace=wrap;html=1;align=center;strokeColor=default;fontSize=18;fillColor=none;fontStyle=4" parent="1" vertex="1"><mxGeometry x="340" y="1400" width="120" height="40" as="geometry"/></mxCell><mxCell id="3N9pXRzrCpbUJ6rccx5e-262" value="Loan_ID" style="whiteSpace=wrap;html=1;align=center;strokeColor=default;fontSize=18;fillColor=none;fontStyle=5" parent="1" vertex="1"><mxGeometry x="120" y="1400" width="100" height="40" as="geometry"/></mxCell><mxCell id="3N9pXRzrCpbUJ6rccx5e-264" value="Book_Borrower" style="text;strokeColor=none;fillColor=none;html=1;fontSize=18;fontStyle=1;verticalAlign=middle;align=center;" parent="1" vertex="1"><mxGeometry x="130" y="1480" width="110" height="40" as="geometry"/></mxCell><mxCell id="3N9pXRzrCpbUJ6rccx5e-270" style="edgeStyle=orthogonalEdgeStyle;rounded=0;orthogonalLoop=1;jettySize=auto;html=1;fontSize=18;entryX=0.5;entryY=1;entryDx=0;entryDy=0;" parent="1" source="3N9pXRzrCpbUJ6rccx5e-267" target="3N9pXRzrCpbUJ6rccx5e-209" edge="1"><mxGeometry relative="1" as="geometry"><mxPoint x="245" y="280" as="targetPoint"/><Array as="points"><mxPoint x="80" y="1540"/><mxPoint x="80" y="400"/><mxPoint x="270" y="400"/></Array></mxGeometry></mxCell><mxCell id="3N9pXRzrCpbUJ6rccx5e-267" value="Book_ID" style="whiteSpace=wrap;html=1;align=center;strokeColor=default;fontSize=18;fillColor=none;fontStyle=5" parent="1" vertex="1"><mxGeometry x="120" y="1520" width="100" height="40" as="geometry"/></mxCell><mxCell id="3N9pXRzrCpbUJ6rccx5e-269" style="edgeStyle=orthogonalEdgeStyle;rounded=0;orthogonalLoop=1;jettySize=auto;html=1;entryX=0.5;entryY=1;entryDx=0;entryDy=0;fontSize=18;" parent="1" source="3N9pXRzrCpbUJ6rccx5e-268" target="3N9pXRzrCpbUJ6rccx5e-257" edge="1"><mxGeometry relative="1" as="geometry"/></mxCell><mxCell id="3N9pXRzrCpbUJ6rccx5e-268" value="Borrower_ID" style="whiteSpace=wrap;html=1;align=center;strokeColor=default;fontSize=18;fillColor=none;fontStyle=5" parent="1" vertex="1"><mxGeometry x="220" y="1520" width="120" height="40" as="geometry"/></mxCell><mxCell id="3N9pXRzrCpbUJ6rccx5e-271" value="Reservation_Borrower" style="text;strokeColor=none;fillColor=none;html=1;fontSize=18;fontStyle=1;verticalAlign=middle;align=center;" parent="1" vertex="1"><mxGeometry x="160" y="1600" width="110" height="40" as="geometry"/></mxCell><mxCell id="3N9pXRzrCpbUJ6rccx5e-275" style="edgeStyle=orthogonalEdgeStyle;rounded=0;orthogonalLoop=1;jettySize=auto;html=1;entryX=0;entryY=0.5;entryDx=0;entryDy=0;fontSize=18;" parent="1" source="3N9pXRzrCpbUJ6rccx5e-272" target="3N9pXRzrCpbUJ6rccx5e-175" edge="1"><mxGeometry relative="1" as="geometry"><Array as="points"><mxPoint x="50" y="1660"/><mxPoint x="50" y="580"/></Array></mxGeometry></mxCell><mxCell id="3N9pXRzrCpbUJ6rccx5e-272" value="Reservation_ID" style="whiteSpace=wrap;html=1;align=center;strokeColor=default;fontSize=18;fillColor=none;fontStyle=5" parent="1" vertex="1"><mxGeometry x="120" y="1640" width="160" height="40" as="geometry"/></mxCell><mxCell id="3N9pXRzrCpbUJ6rccx5e-277" style="edgeStyle=orthogonalEdgeStyle;rounded=0;orthogonalLoop=1;jettySize=auto;html=1;entryX=0.5;entryY=1;entryDx=0;entryDy=0;fontSize=18;exitX=0.5;exitY=0;exitDx=0;exitDy=0;" parent="1" source="3N9pXRzrCpbUJ6rccx5e-273" target="3N9pXRzrCpbUJ6rccx5e-257" edge="1"><mxGeometry relative="1" as="geometry"><Array as="points"><mxPoint x="345" y="1600"/><mxPoint x="380" y="1600"/><mxPoint x="380" y="1480"/><mxPoint x="280" y="1480"/></Array></mxGeometry></mxCell><mxCell id="3N9pXRzrCpbUJ6rccx5e-273" value="Borrower_ID" style="whiteSpace=wrap;html=1;align=center;strokeColor=default;fontSize=18;fillColor=none;fontStyle=5" parent="1" vertex="1"><mxGeometry x="280" y="1640" width="130" height="40" as="geometry"/></mxCell><mxCell id="3N9pXRzrCpbUJ6rccx5e-274" value="Reservation_date" style="whiteSpace=wrap;html=1;align=center;strokeColor=default;fontSize=18;fillColor=none;" parent="1" vertex="1"><mxGeometry x="410" y="1640" width="160" height="40" as="geometry"/></mxCell><mxCell id="w69w0hlKESF7Hr4Dqop_-2" value="Street" style="whiteSpace=wrap;html=1;align=center;strokeColor=default;fontSize=18;fillColor=none;" parent="1" vertex="1"><mxGeometry x="220" y="200" width="120" height="40" as="geometry"/></mxCell><mxCell id="w69w0hlKESF7Hr4Dqop_-3" value="First_name" style="whiteSpace=wrap;html=1;align=center;strokeColor=default;fontSize=18;fillColor=none;" parent="1" vertex="1"><mxGeometry x="120" y="1160" width="110" height="40" as="geometry"/></mxCell><mxCell id="j8ItXBWwKzQ6Chcg5zu0-1" value="Nationality" style="whiteSpace=wrap;html=1;align=center;strokeColor=default;fontSize=18;fillColor=none;" parent="1" vertex="1"><mxGeometry x="1060" y="1160" width="110" height="40" as="geometry"/></mxCell><mxCell id="lo5Fbl3dZ4u8TG2OoECj-1" value="Last_name" style="whiteSpace=wrap;html=1;align=center;strokeColor=default;fontSize=18;fillColor=none;" parent="1" vertex="1"><mxGeometry x="230" y="1160" width="110" height="40" as="geometry"/></mxCell><mxCell id="lo5Fbl3dZ4u8TG2OoECj-2" value="City" style="whiteSpace=wrap;html=1;align=center;strokeColor=default;fontSize=18;fillColor=none;" parent="1" vertex="1"><mxGeometry x="460" y="200" width="120" height="40" as="geometry"/></mxCell><mxCell id="lo5Fbl3dZ4u8TG2OoECj-3" value="Number" style="whiteSpace=wrap;html=1;align=center;strokeColor=default;fontSize=18;fillColor=none;" parent="1" vertex="1"><mxGeometry x="340" y="200" width="120" height="40" as="geometry"/></mxCell><mxCell id="lo5Fbl3dZ4u8TG2OoECj-4" value="Street" style="whiteSpace=wrap;html=1;align=center;strokeColor=default;fontSize=18;fillColor=none;" parent="1" vertex="1"><mxGeometry x="700" y="1160" width="120" height="40" as="geometry"/></mxCell><mxCell id="lo5Fbl3dZ4u8TG2OoECj-5" value="City" style="whiteSpace=wrap;html=1;align=center;strokeColor=default;fontSize=18;fillColor=none;" parent="1" vertex="1"><mxGeometry x="940" y="1160" width="120" height="40" as="geometry"/></mxCell><mxCell id="lo5Fbl3dZ4u8TG2OoECj-6" value="Number" style="whiteSpace=wrap;html=1;align=center;strokeColor=default;fontSize=18;fillColor=none;" parent="1" vertex="1"><mxGeometry x="820" y="1160" width="120" height="40" as="geometry"/></mxCell><mxCell id="tBER9kwEw8qmH7yu1c3f-1" value="&lt;b&gt;&lt;u&gt;Genre_ID&lt;/u&gt;&lt;/b&gt;" style="whiteSpace=wrap;html=1;align=center;strokeColor=default;fontSize=18;fillColor=none;" parent="1" vertex="1"><mxGeometry x="220" y="680" width="110" height="40" as="geometry"/></mxCell><mxCell id="tBER9kwEw8qmH7yu1c3f-2" value="Genre_Book" style="text;strokeColor=none;fillColor=none;html=1;fontSize=18;fontStyle=1;verticalAlign=middle;align=center;" parent="1" vertex="1"><mxGeometry x="110" y="760" width="125" height="40" as="geometry"/></mxCell><mxCell id="tBER9kwEw8qmH7yu1c3f-3" style="edgeStyle=orthogonalEdgeStyle;rounded=0;orthogonalLoop=1;jettySize=auto;html=1;entryX=0.5;entryY=1;entryDx=0;entryDy=0;fontSize=18;" parent="1" source="tBER9kwEw8qmH7yu1c3f-4" target="tBER9kwEw8qmH7yu1c3f-1" edge="1"><mxGeometry relative="1" as="geometry"/></mxCell><mxCell id="tBER9kwEw8qmH7yu1c3f-4" value="&lt;b&gt;&lt;u&gt;Genre_ID&lt;/u&gt;&lt;/b&gt;" style="whiteSpace=wrap;html=1;align=center;strokeColor=default;fontSize=18;fillColor=none;" parent="1" vertex="1"><mxGeometry x="220" y="800" width="110" height="40" as="geometry"/></mxCell><mxCell id="tBER9kwEw8qmH7yu1c3f-8" style="edgeStyle=orthogonalEdgeStyle;rounded=0;orthogonalLoop=1;jettySize=auto;html=1;entryX=0.5;entryY=1;entryDx=0;entryDy=0;" parent="1" source="tBER9kwEw8qmH7yu1c3f-5" target="3N9pXRzrCpbUJ6rccx5e-209" edge="1"><mxGeometry relative="1" as="geometry"><Array as="points"><mxPoint x="80" y="820"/><mxPoint x="80" y="400"/><mxPoint x="270" y="400"/></Array></mxGeometry></mxCell><mxCell id="tBER9kwEw8qmH7yu1c3f-5" value="Book_ID" style="whiteSpace=wrap;html=1;align=center;strokeColor=default;fontSize=18;fillColor=none;fontStyle=5" parent="1" vertex="1"><mxGeometry x="120" y="800" width="100" height="40" as="geometry"/></mxCell><mxCell id="tBER9kwEw8qmH7yu1c3f-6" value="Name" style="whiteSpace=wrap;html=1;align=center;strokeColor=default;fontSize=18;fillColor=none;" parent="1" vertex="1"><mxGeometry x="120" y="680" width="100" height="40" as="geometry"/></mxCell><mxCell id="tBER9kwEw8qmH7yu1c3f-7" value="Genre" style="text;strokeColor=none;fillColor=none;html=1;fontSize=18;fontStyle=1;verticalAlign=middle;align=center;" parent="1" vertex="1"><mxGeometry x="85" y="640" width="125" height="40" as="geometry"/></mxCell><mxCell id="CaojF0RJIq3FJKugUl7A-4" value="Author" style="text;strokeColor=none;fillColor=none;html=1;fontSize=18;fontStyle=1;verticalAlign=middle;align=center;" parent="1" vertex="1"><mxGeometry x="100" y="400" width="100" height="40" as="geometry"/></mxCell><mxCell id="CaojF0RJIq3FJKugUl7A-12" style="edgeStyle=orthogonalEdgeStyle;rounded=0;orthogonalLoop=1;jettySize=auto;html=1;entryX=0.5;entryY=1;entryDx=0;entryDy=0;" parent="1" source="CaojF0RJIq3FJKugUl7A-5" target="CaojF0RJIq3FJKugUl7A-7" edge="1"><mxGeometry relative="1" as="geometry"/></mxCell><mxCell id="CaojF0RJIq3FJKugUl7A-5" value="Author_ID" style="whiteSpace=wrap;html=1;align=center;strokeColor=default;fontSize=18;fillColor=none;fontStyle=5" parent="1" vertex="1"><mxGeometry x="240" y="440" width="120" height="40" as="geometry"/></mxCell><mxCell id="CaojF0RJIq3FJKugUl7A-11" style="edgeStyle=orthogonalEdgeStyle;rounded=0;orthogonalLoop=1;jettySize=auto;html=1;entryX=0.5;entryY=0;entryDx=0;entryDy=0;" parent="1" source="CaojF0RJIq3FJKugUl7A-6" target="3N9pXRzrCpbUJ6rccx5e-181" edge="1"><mxGeometry relative="1" as="geometry"><Array as="points"><mxPoint x="180" y="510"/><mxPoint x="750" y="510"/><mxPoint x="750" y="1120"/><mxPoint x="520" y="1120"/></Array></mxGeometry></mxCell><mxCell id="CaojF0RJIq3FJKugUl7A-6" value="&lt;b&gt;Person_ID&lt;/b&gt;" style="whiteSpace=wrap;html=1;align=center;strokeColor=default;fontSize=18;fillColor=none;fontStyle=4" parent="1" vertex="1"><mxGeometry x="120" y="440" width="120" height="40" as="geometry"/></mxCell><mxCell id="CaojF0RJIq3FJKugUl7A-7" value="Author_ID" style="whiteSpace=wrap;html=1;align=center;strokeColor=default;fontSize=18;fillColor=none;fontStyle=5" parent="1" vertex="1"><mxGeometry x="810" y="320" width="120" height="40" as="geometry"/></mxCell><mxCell id="KfTtD0Z5w6l8Uc1N2d9O-1" value="Salary" style="whiteSpace=wrap;html=1;align=center;strokeColor=default;fontSize=18;fillColor=none;" parent="1" vertex="1"><mxGeometry x="360" y="1280" width="160" height="40" as="geometry"/></mxCell><mxCell id="KfTtD0Z5w6l8Uc1N2d9O-2" value="End" style="whiteSpace=wrap;html=1;align=center;strokeColor=default;fontSize=18;fillColor=none;" parent="1" vertex="1"><mxGeometry x="680" y="1280" width="160" height="40" as="geometry"/></mxCell><mxCell id="KfTtD0Z5w6l8Uc1N2d9O-3" value="Start" style="whiteSpace=wrap;html=1;align=center;strokeColor=default;fontSize=18;fillColor=none;" parent="1" vertex="1"><mxGeometry x="520" y="1280" width="160" height="40" as="geometry"/></mxCell><mxCell id="2" value="Librarian_ID" style="whiteSpace=wrap;html=1;align=center;strokeColor=default;fontSize=18;fillColor=none;fontStyle=5" vertex="1" parent="1"><mxGeometry x="220" y="80" width="120" height="40" as="geometry"/></mxCell><mxCell id="10" style="edgeStyle=orthogonalEdgeStyle;rounded=0;orthogonalLoop=1;jettySize=auto;html=1;exitX=0.5;exitY=1;exitDx=0;exitDy=0;entryX=0.5;entryY=0;entryDx=0;entryDy=0;" edge="1" parent="1" source="4" target="3N9pXRzrCpbUJ6rccx5e-193"><mxGeometry relative="1" as="geometry"/></mxCell><mxCell id="4" value="Branch_ID" style="whiteSpace=wrap;html=1;align=center;strokeColor=default;fontSize=18;fillColor=none;fontStyle=5" vertex="1" parent="1"><mxGeometry x="120" y="80" width="100" height="40" as="geometry"/></mxCell><mxCell id="5" value="Library_Branch" style="text;strokeColor=none;fillColor=none;html=1;fontSize=18;fontStyle=1;verticalAlign=middle;align=center;" vertex="1" parent="1"><mxGeometry x="140" y="40" width="90" height="40" as="geometry"/></mxCell><mxCell id="11" style="edgeStyle=orthogonalEdgeStyle;rounded=0;orthogonalLoop=1;jettySize=auto;html=1;exitX=0.5;exitY=1;exitDx=0;exitDy=0;entryX=0.5;entryY=0;entryDx=0;entryDy=0;" edge="1" parent="1" source="7" target="3N9pXRzrCpbUJ6rccx5e-192"><mxGeometry relative="1" as="geometry"><Array as="points"><mxPoint x="180" y="40"/><mxPoint x="810" y="40"/></Array></mxGeometry></mxCell><mxCell id="7" value="Publisher_ID" style="whiteSpace=wrap;html=1;align=center;strokeColor=default;fontSize=18;fillColor=none;fontStyle=5" vertex="1" parent="1"><mxGeometry x="120" y="-40" width="120" height="40" as="geometry"/></mxCell><mxCell id="8" value="Publisher" style="text;strokeColor=none;fillColor=none;html=1;fontSize=18;fontStyle=1;verticalAlign=middle;align=center;" vertex="1" parent="1"><mxGeometry x="115" y="-80" width="90" height="40" as="geometry"/></mxCell></root></mxGraphModel></diagram></mxfile>